PathFileType	4	(X/Y/Z)	SUBJ94_0_static_RCNL2025.trc
DataRate	CameraRate	NumFrames	NumMarkers	Units	OrigDataRate	OrigDataStartFrame	OrigNumFrames
100	100	13	25	mm	100	142	227
Frame#	Time	R_Shoulder			L_Shoulder			C7			J_Notch			R_Elbow			L_Elbow			R_Wrist			L_Wrist			R_Asis			L_Asis			Sacral			Thoracic			Sternum			R_Thigh_Lateral			R_Knee_Lateral			R_Shank_Lateral			R_Ankle_Lateral			R_Heel			R_Toe			L_Thigh_Lateral			L_Knee_Lateral			L_Shank_Lateral			L_Ankle_Lateral			L_Heel			L_Toe		
		X1	Y1	Z1	X2	Y2	Z2	X3	Y3	Z3	X4	Y4	Z4	X5	Y5	Z5	X6	Y6	Z6	X7	Y7	Z7	X8	Y8	Z8	X9	Y9	Z9	X10	Y10	Z10	X11	Y11	Z11	X12	Y12	Z12	X13	Y13	Z13	X14	Y14	Z14	X15	Y15	Z15	X16	Y16	Z16	X17	Y17	Z17	X18	Y18	Z18	X19	Y19	Z19	X20	Y20	Z20	X21	Y21	Z21	X22	Y22	Z22	X23	Y23	Z23	X24	Y24	Z24	X25	Y25	Z25
142	1.41000000	-296.178619	1270.773071	-55.984680	-283.416870	1284.840576	-432.331970	-341.853943	1352.276733	-242.920074	-227.414078	1263.734985	-247.650879	-361.736908	1019.186157	62.433113	-346.945557	1032.045410	-549.852844	-335.986816	806.124603	129.414417	-303.475525	806.093903	-588.712128	-216.424484	882.037903	-117.558884	-200.568024	872.756653	-343.999237	-399.227173	939.491333	-252.810181	-403.510162	1148.723389	-253.471878	-186.380325	1071.281494	-240.213837	-307.372986	537.213135	-58.157272	-326.418884	444.279755	-116.089828	-348.612640	261.120026	-75.151848	-361.025391	55.815945	-158.193619	-404.390869	52.631458	-206.220612	-226.246933	37.875538	-188.025955	-293.353943	535.873291	-428.654022	-320.237823	439.557495	-373.444122	-336.567963	259.870972	-437.029633	-358.929596	56.766956	-331.764557	-399.357330	46.600430	-283.456238	-233.156479	42.481766	-300.200897
143	1.42000000	-296.209808	1270.670044	-55.961426	-283.558807	1284.867554	-432.367432	-341.982788	1352.220459	-242.937469	-227.535858	1263.732910	-247.690781	-361.772980	1019.224792	62.566719	-347.089539	1032.022339	-549.857788	-335.944321	806.114746	129.451973	-303.594482	806.078888	-588.607025	-216.578888	882.100769	-117.563377	-200.682968	872.787354	-344.035278	-399.340546	939.377380	-252.872894	-403.515839	1148.707397	-253.471313	-186.508621	1071.288086	-240.313385	-307.426697	537.177673	-58.240032	-326.371155	444.262207	-116.132301	-348.624176	261.125885	-75.135658	-360.963318	55.785160	-158.258621	-404.387207	52.574551	-206.226334	-226.308548	37.928799	-188.062317	-293.363220	535.856873	-428.668884	-320.242615	439.528229	-373.508118	-336.502930	259.869232	-437.071045	-358.940552	56.769928	-331.773956	-399.384125	46.599152	-283.468781	-233.147690	42.471661	-300.169281
144	1.43000000	-296.110626	1270.593750	-56.216976	-283.714905	1284.852661	-432.355103	-342.138519	1352.263794	-242.951233	-227.658463	1263.745483	-247.730194	-361.739197	1019.166077	62.556675	-347.247223	1031.980713	-549.795227	-335.964249	806.175934	129.403648	-303.675415	806.029846	-588.461029	-216.722046	882.116089	-117.597290	-200.720062	872.916260	-343.957672	-399.417328	939.375549	-252.924637	-403.659973	1148.665039	-253.484772	-186.616394	1071.308960	-240.384903	-307.460785	537.201416	-58.221561	-326.492828	444.290039	-116.156105	-348.580322	261.146454	-75.181252	-361.011139	55.787518	-158.212646	-404.386383	52.580868	-206.224152	-226.344421	37.893997	-188.083984	-293.263214	535.877869	-428.778076	-320.257294	439.506287	-373.501801	-336.501740	259.821838	-437.093018	-358.936279	56.765297	-331.755219	-399.363586	46.552048	-283.461365	-233.174316	42.473228	-300.193329
145	1.44000000	-296.453888	1270.706299	-56.014122	-283.873840	1284.894165	-432.348938	-342.291016	1352.229248	-242.950912	-227.854401	1263.744263	-247.722397	-361.753448	1019.184814	62.575314	-347.357880	1031.946777	-549.874756	-335.909149	806.181671	129.459156	-303.713196	806.034241	-588.426483	-216.852448	882.124451	-117.635086	-200.929550	872.845398	-343.944031	-399.475464	939.381348	-252.939911	-403.791290	1148.687378	-253.549332	-186.637405	1071.309448	-240.385849	-307.539093	537.206604	-58.296524	-326.530151	444.310913	-116.163834	-348.731171	260.922363	-75.119347	-360.987518	55.767056	-158.236938	-404.345551	52.507797	-206.260254	-226.294067	37.933823	-188.034760	-293.181519	535.832458	-428.686096	-320.256744	439.501862	-373.495850	-336.439240	259.803619	-437.070801	-358.943329	56.756813	-331.746826	-399.342590	46.542240	-283.520691	-233.182114	42.486042	-300.210419
146	1.45000000	-296.640930	1270.739868	-56.020908	-283.928192	1284.962769	-432.408020	-342.363770	1352.247437	-242.999100	-227.997452	1263.739990	-247.805801	-361.946930	1019.257446	62.585991	-347.395386	1031.984741	-549.798706	-335.871292	806.203278	129.547997	-303.782532	806.010193	-588.391266	-216.936707	882.134583	-117.591034	-201.062866	872.875793	-344.003265	-399.682159	939.405090	-253.012848	-403.860718	1148.686157	-253.577393	-186.713806	1071.361694	-240.477692	-307.532593	537.201843	-58.328888	-326.438965	444.257019	-116.218170	-348.652649	260.984772	-75.286217	-360.954285	55.725643	-158.275375	-404.325439	52.486031	-206.287048	-226.300568	37.878864	-188.063065	-293.262543	535.864197	-428.755371	-320.271149	439.520447	-373.512512	-336.479614	259.847443	-437.087036	-358.938263	56.769981	-331.748688	-399.406342	46.574749	-283.462769	-233.174133	42.480095	-300.193726
147	1.46000000	-296.719299	1270.746338	-56.098938	-284.057159	1284.982178	-432.435120	-342.433350	1352.224609	-242.970795	-228.117798	1263.739380	-247.852234	-362.003235	1019.273438	62.613792	-347.406586	1031.979492	-549.798401	-335.808197	806.318054	129.524494	-303.768234	806.019714	-588.272797	-217.040955	882.162598	-117.651512	-201.035172	872.967896	-343.990295	-399.697632	939.409973	-253.013641	-403.965271	1148.630249	-253.658966	-186.906158	1071.375244	-240.454010	-307.608429	537.203369	-58.387486	-326.416779	444.248077	-116.236893	-348.585938	261.088898	-75.324997	-361.038727	55.736633	-158.312988	-404.345886	52.500412	-206.262268	-226.362747	37.891235	-188.042664	-293.335236	535.809875	-428.749603	-320.266327	439.498505	-373.490662	-336.484222	259.779572	-437.127075	-358.927826	56.731815	-331.749115	-399.377289	46.575310	-283.488861	-233.179794	42.485607	-300.208008
148	1.47000000	-296.869568	1270.755737	-56.123009	-284.150513	1284.978271	-432.454102	-342.572449	1352.237183	-243.008270	-228.159103	1263.806763	-247.782303	-362.040344	1019.297791	62.639507	-347.488525	1031.992432	-549.798340	-335.844315	806.339630	129.605011	-303.743759	806.004791	-588.162140	-217.049591	882.167297	-117.659882	-201.129761	872.973511	-344.028656	-399.791199	939.397339	-253.057999	-404.106873	1148.667358	-253.714493	-187.052521	1071.361206	-240.478577	-307.614441	537.218689	-58.387291	-326.499756	444.250977	-116.284645	-348.666504	261.024139	-75.299988	-361.059967	55.763981	-158.293640	-404.329559	52.509544	-206.284271	-226.315079	37.886295	-188.079178	-293.345123	535.814941	-428.769196	-320.335205	439.524353	-373.535370	-336.496368	259.828735	-437.111328	-358.934082	56.741085	-331.735229	-399.408966	46.579082	-283.460236	-233.171478	42.460266	-300.194946
149	1.48000000	-297.000885	1270.800537	-56.145382	-284.227753	1285.063477	-432.410614	-342.745789	1352.230713	-242.980164	-228.284302	1263.821777	-247.787659	-362.047821	1019.324158	62.649548	-347.549927	1032.013672	-549.793579	-335.887985	806.422729	129.701454	-303.744110	806.050751	-588.184723	-217.160629	882.161560	-117.694099	-201.264969	872.962891	-344.091217	-399.833069	939.358337	-253.048294	-404.183289	1148.621094	-253.756424	-187.156723	1071.410034	-240.576416	-307.622681	537.232056	-58.377556	-326.556000	444.264069	-116.248627	-348.599731	261.091217	-75.303169	-361.126709	55.840286	-158.235046	-404.346466	52.521626	-206.261658	-226.356552	37.925732	-188.078094	-293.338043	535.772522	-428.756409	-320.397034	439.528198	-373.517944	-336.508820	259.774475	-437.083771	-358.944763	56.810265	-331.750519	-399.408112	46.604721	-283.447479	-233.166397	42.487938	-300.184113
150	1.49000000	-297.171448	1270.758301	-56.135063	-284.263153	1285.162842	-432.448547	-342.816620	1352.261108	-243.030548	-228.488785	1263.814819	-247.754745	-362.201752	1019.324768	62.756470	-347.621460	1032.058228	-549.914307	-335.841019	806.455353	129.813789	-303.708466	806.036377	-588.089813	-217.237427	882.064941	-117.694969	-201.280655	872.939209	-344.091736	-399.965790	939.379028	-253.061066	-404.340942	1148.675171	-253.763351	-187.268799	1071.415405	-240.603592	-307.719269	537.261780	-58.405525	-326.513367	444.279846	-116.274094	-348.640900	261.113556	-75.382545	-361.105865	55.825562	-158.247589	-404.342194	52.538795	-206.261932	-226.308807	37.921101	-188.094131	-293.384674	535.797852	-428.832275	-320.392548	439.535919	-373.536987	-336.532043	259.778900	-437.099335	-358.916931	56.782555	-331.748108	-399.422913	46.614555	-283.425110	-233.158508	42.486683	-300.163361
151	1.50000000	-297.417725	1270.793457	-56.159008	-284.403442	1285.148682	-432.447998	-342.983124	1352.320801	-243.021317	-228.610504	1263.858398	-247.814880	-362.363190	1019.408508	62.866051	-347.699738	1032.071289	-549.802551	-335.906937	806.480957	129.912319	-303.764343	806.042603	-588.031403	-217.338043	882.082520	-117.774666	-201.439529	873.000366	-344.092194	-400.130157	939.357300	-253.035461	-404.488464	1148.700439	-253.778122	-187.283737	1071.425293	-240.619141	-307.748993	537.293945	-58.385071	-326.525208	444.292236	-116.266937	-348.650574	261.050507	-75.343712	-360.963867	55.801666	-158.242996	-404.349030	52.567860	-206.258224	-226.341034	37.914757	-188.094849	-293.544373	535.808472	-428.872101	-320.456909	439.561523	-373.583008	-336.537781	259.779968	-437.058899	-358.929840	56.784027	-331.748230	-399.419434	46.616367	-283.442963	-233.167786	42.493271	-300.174072
152	1.51000000	-297.576385	1270.763306	-56.192337	-284.450470	1285.158203	-432.490448	-343.015961	1352.278320	-243.008804	-228.723663	1263.876587	-247.862228	-362.454590	1019.428467	62.821358	-347.754883	1032.062866	-549.926025	-335.984024	806.571777	129.987286	-303.714737	806.071991	-588.029266	-217.315292	882.148865	-117.872162	-201.576889	872.996643	-344.126770	-400.212677	939.370239	-253.022583	-404.555542	1148.691406	-253.836044	-187.440155	1071.491455	-240.622238	-307.758636	537.306152	-58.380016	-326.517517	444.288025	-116.280518	-348.595703	261.033875	-75.377502	-361.100922	55.858135	-158.234558	-404.371338	52.514141	-206.231171	-226.348816	37.938412	-188.121796	-293.569550	535.828918	-428.890961	-320.474915	439.512604	-373.609253	-336.450073	259.809875	-437.182800	-358.935883	56.809502	-331.749481	-399.420715	46.636875	-283.425568	-233.160080	42.527458	-300.194550
153	1.52000000	-297.711487	1270.796265	-56.225780	-284.558380	1285.205444	-432.494629	-343.152100	1352.258545	-243.025879	-228.847290	1263.880005	-247.925903	-362.517670	1019.454041	62.859337	-347.756165	1032.042603	-549.954102	-336.076508	806.612976	130.060162	-303.681580	806.063416	-588.038635	-217.412537	882.170410	-117.917358	-201.630478	872.994568	-344.258728	-400.289612	939.331726	-253.058487	-404.675140	1148.709839	-253.876831	-187.539627	1071.559082	-240.656540	-307.706787	537.274719	-58.446079	-326.498230	444.278870	-116.300644	-348.573944	260.997223	-75.387955	-360.983368	55.825718	-158.243362	-404.362000	52.482105	-206.234787	-226.341019	37.924717	-188.095718	-293.625946	535.849548	-428.948669	-320.487213	439.513367	-373.618317	-336.389740	259.739349	-437.137817	-358.828003	56.786629	-331.878632	-399.424286	46.545769	-283.440643	-233.217560	42.550686	-300.269592
154	1.53000000	-297.862396	1270.789795	-56.241882	-284.630554	1285.214478	-432.487213	-343.295776	1352.233276	-243.077759	-228.926788	1263.889526	-247.860703	-362.725128	1019.492981	62.896179	-347.776703	1032.006226	-550.000610	-336.162491	806.671143	130.213036	-303.646576	806.059143	-588.011841	-217.522949	882.171997	-118.037773	-201.810577	873.005127	-344.240479	-400.429688	939.317932	-253.081131	-404.836731	1148.696533	-253.902100	-187.669479	1071.553711	-240.671982	-307.684753	537.325195	-58.450588	-326.432159	444.218292	-116.354507	-348.553009	260.994476	-75.379074	-360.993347	55.800785	-158.211670	-404.369049	52.500248	-206.220551	-226.297043	37.895260	-188.108398	-293.643677	535.809937	-428.797729	-320.581268	439.442078	-373.608643	-336.369415	259.703552	-436.972321	-358.859497	56.759769	-331.803070	-399.378937	46.585136	-283.466370	-233.238892	42.530884	-300.271759
